<svg width="300" height="300" version="1.1" xmlns="http://www.w3.org/2000/svg">
<g transform="translate(35.241 -504.95)">
<path class="moose-body-fill" d="m139.66 590.08 10.728 0.12586 40.339-1.0931-4.2892 27.222-12.825 0.0404-29.993 1.4268zm-12.388-37.366-32.907 0.9153 5.6656 35.011 28.361 0.66137 4.4366-36.588zm-34.596 0h-5.9472l-88.013-0.61656-5.8274-18.144 16.454-22.298 21.2-4.514 1.0819 28.123 21.449-14.198 12.9 19.66 19.154-9.4774zm40.143 2.5244 99.101-3.5134 0.79804-23.801-19.465-19.726-15.984 2.6952-0.4581 24.413-21.666-14.325-12.806 18.459-19.988-7.3532z" fill="#c7a382"/>
<path transform="translate(-35.241 504.95)" d="m60.014 0c-4.8976 9.7976e-5 -11.227 2.5781-17.805 8.4121l-0.011718 0.0058594c-4.4561 4.218-12.575 13.866-15.818 22.721-1.6214 4.4275-2.0272 8.6922-0.042968 11.961 1.9848 3.2687 6.3164 5.4322 13.947 5.7715 28.475 1.266 83.082 1.8184 83.082 1.8184l0.38868 0.005859-1.4883-5.918-0.24218 0.015625s-57.573 2.08-81.395 1.8848c-3.0557-0.0252-5.257-1.2757-6.7188-3.3516-1.4618-2.0758-2.1746-5.0082-2.127-8.3535 0.095371-6.6907 3.228-15.021 9.1172-21.451 3.6904-4.0295 10.501-7.4496 16.008-8.0371 2.7535-0.29377 5.158 0.12226 6.7031 1.4297s2.3145 3.5317 1.7168 7.0781c-0.85028 5.0448-1.0187 8.9334-0.66797 11.785 0.35075 2.8518 1.2142 4.6955 2.5156 5.5723 1.3013 0.87672 2.9768 0.69008 4.7148-0.33789 1.738-1.028 3.5934-2.8931 5.4336-5.4922 1.8395-2.5981 3.756-4.1104 5.6113-4.8105 1.8552-0.70013 3.6622-0.60209 5.3457 0.066407 3.3671 1.337 6.2127 5.0041 7.4941 9.0645 0.88748 2.812 1.9195 4.6617 3.1094 5.793 1.1899 1.1313 2.5493 1.5201 3.9453 1.3867 2.792-0.26683 5.7701-2.4746 8.8086-4.5332 1.8926-1.2822 3.5828-1.8495 5.0957-1.7676 1.513 0.0819 2.8742 0.8073 4.1445 2.2227 2.5408 2.8308 4.622 8.4305 6.2773 16.684l7.4648 37.211h0.01368l0.25781 1.748 29.391-1.7285-0.01367-0.029297 7.2402-36.09 4.0156-0.046875s54.606-0.55236 83.08-1.8184c7.6309-0.33929 11.964-2.5028 13.949-5.7715 1.9847-3.2687 1.5702-7.5334-0.05078-11.961-3.2429-8.8549-11.356-18.501-15.812-22.719h-0.00977v-0.0078125c-8.0946-7.1795-15.821-9.4262-20.959-8.0078-2.5678 0.70997-4.476 2.3636-5.3867 4.7441-0.9109 2.3812-0.82843 5.4651 0.49023 9.0645 1.908 5.2081 1.1347 9.1496-0.62305 10.941-0.87878 0.89588-1.9898 1.2776-3.2129 1.0625-1.2232-0.21507-2.5667-1.0508-3.8418-2.6621-3.1836-4.0232-5.852-6.4371-8.1777-7.6191-2.3257-1.182-4.3439-1.0952-6.0566-0.10156-3.4256 1.9873-5.6873 7.3632-8.1406 13.082-0.72821 1.6976-3.0604 2.8627-5.6035 3.1602-2.5431 0.29745-5.2407-0.28256-6.6367-1.7969-2.8039-3.0416-5.3713-4.4738-7.7207-4.5977-2.3493-0.12391-4.4173 1.0888-6.1602 3.168-3.4858 4.1582-5.8184 11.817-7.1211 20.088l-5.3398 33.902h-0.86329l-24.834-1.2871-4.9434-31.391 31.061 0.88672 1.7773-6.4629-33.357 2.4922c-1.3489-7.5436-3.5711-14.385-6.793-18.229-1.7428-2.0791-3.8108-3.2919-6.1602-3.168-2.3494 0.1239-4.9186 1.556-7.7226 4.5977-1.396 1.5143-4.1014 2.0943-6.6445 1.7969-2.5431-0.29745-4.8675-1.4625-5.5957-3.1602-2.4533-5.7188-4.7151-11.097-8.1406-13.084-1.7129-0.99364-3.7309-1.0785-6.0566 0.10352-2.3257 1.182-4.9942 3.5959-8.1777 7.6191-1.275 1.6113-2.6265 2.447-3.8496 2.6621-1.2232 0.21507-2.3321-0.16857-3.2109-1.0645-1.7578-1.7918-2.5252-5.7333-0.61719-10.941 1.3188-3.5993 1.4031-6.6833 0.49219-9.0645-0.9104-2.3798-2.8279-4.0318-5.3945-4.7422-0.96328-0.26614-2.0163-0.40432-3.1465-0.4043zm179.97 5.4004c0.63675-0.018152 1.3038 0.012498 1.9922 0.085938 5.5069 0.58752 12.319 4.0076 16.01 8.0371 5.8892 6.4304 9.0121 14.759 9.1074 21.449 0.0477 3.3454-0.65742 6.2777-2.1191 8.3535-1.4618 2.0759-3.6611 3.3265-6.7168 3.3516-23.821 0.19521-81.395-1.8848-81.395-1.8848l-3.9961-0.12695c1.4408-5.5625 3.142-9.5066 5.1328-11.725 1.2703-1.4154 2.6375-2.1388 4.1504-2.2207 1.5129-0.0819 3.2031 0.48536 5.0957 1.7676 3.0385 2.0586 6.0166 4.2644 8.8086 4.5312 1.396 0.13343 2.7555-0.25545 3.9453-1.3867 1.1899-1.1313 2.2219-2.9809 3.1094-5.793 1.2815-4.0604 4.127-7.7275 7.4941-9.0645 1.6835-0.6685 3.4904-0.76654 5.3457-0.066407 1.8552 0.70013 3.7717 2.2144 5.6113 4.8125 1.8401 2.5991 3.6955 4.4642 5.4336 5.4922 1.738 1.028 3.4134 1.2146 4.7148 0.33789 1.3013-0.87671 2.1649-2.7224 2.5156-5.5742 0.35076-2.8518 0.18426-6.7403-0.66602-11.785-0.59766-3.5464 0.16973-5.7687 1.7148-7.0762 1.1588-0.98057 2.8007-1.4612 4.7109-1.5156zm-67.004 56.51l-3.3613 14.541 8.0059 34.57 0.05078 0.41407-12.986 58.93-63.32-0.01367 21.332 9.6484 152.29-9.6113-38.729-0.00976-13.012-59.055 3.6855-26.049 3.9902-0.35547 1.3203-6.9727-5.7266 0.64062-0.94141 5.2441-41.057-2.3965 1.4121 7.498 39.391-3.5137-17.398 84.955-16.086-0.00391-11.523-57.285 28.744 2.0488 1.0859-7.9043-30.295 3.5449-0.05274-0.25781-6.8242-48.607zm-30.203 1.0918a2.8235 2.8237 0 0 0 -2.8242 2.8242 2.8235 2.8237 0 0 0 2.8242 2.8242 2.8235 2.8237 0 0 0 2.8223 -2.8242 2.8235 2.8237 0 0 0 -2.8223 -2.8242zm13.014 0.93164a2.8235 2.8237 0 0 0 -2.8242 2.8242 2.8235 2.8237 0 0 0 2.8242 2.8223 2.8235 2.8237 0 0 0 2.8223 -2.8223 2.8235 2.8237 0 0 0 -2.8223 -2.8242zm66.578 53.648l6.9492 52.797-14.42-0.00391 7.4707-52.793zm-43.867 0.63672l6.3516 52.15-13.215-0.00195 6.8633-52.148zm-133.06 121.78c-3.0464 0-5.7367 0.66037-8.0723 1.9805-2.3017 1.3201-4.0946 3.2654-5.3809 5.8379-1.2524 2.5386-1.8789 5.5865-1.8789 9.1406s0.62651 6.6339 1.8789 9.2402c1.2862 2.6064 3.0792 4.6024 5.3809 5.9902 2.3355 1.354 5.0259 2.0312 8.0723 2.0312 3.0464 0 5.7218-0.6773 8.0234-2.0312 2.3355-1.3878 4.1285-3.3839 5.3809-5.9902 1.2862-2.6064 1.9297-5.6861 1.9297-9.2402s-0.64345-6.602-1.9297-9.1406c-1.2524-2.5386-3.0453-4.467-5.3809-5.7871-2.3017-1.354-4.9771-2.0312-8.0234-2.0312zm32.168 0c-2.3355 0-4.4502 0.45718-6.3457 1.3711-1.8617 0.91392-3.3179 2.1669-4.3672 3.7578-1.0493 1.557-1.5742 3.2653-1.5742 5.127 0 2.234 0.60958 4.1305 1.8281 5.6875 1.2524 1.557 2.861 2.7234 4.8242 3.502l4.1113 1.7266c0.88006 0.33849 1.6759 0.67713 2.3867 1.0156 0.71082 0.30463 1.2357 0.62636 1.5742 0.96484 0.33848 0.30464 0.50781 0.71101 0.50781 1.2188-1e-6 1.557-1.253 2.3359-3.7578 2.3359-1.1847 0-2.4716-0.28785-3.8594-0.86328-1.3878-0.60927-2.6727-1.3882-3.8574-2.3359l-4.9766 5.9922c1.7263 1.557 3.6905 2.7404 5.8906 3.5527 2.234 0.77853 4.4333 1.168 6.5996 1.168 2.6402 0 4.9261-0.47411 6.8555-1.4219 1.9632-0.98162 3.4513-2.2665 4.4668-3.8574 1.0493-1.6247 1.5742-3.3857 1.5742-5.2812 0-4.3326-2.1485-7.3447-6.4473-9.0371l-4.0117-1.5742c-0.94775-0.33849-1.8113-0.67715-2.5898-1.0156-0.77851-0.33848-1.3542-0.67713-1.7266-1.0156-0.37233-0.33849-0.55859-0.76181-0.55859-1.2695 0-0.71083 0.30479-1.2527 0.91406-1.625 0.60927-0.40618 1.4559-0.60938 2.5391-0.60938 1.1847 0 2.2853 0.2032 3.3008 0.60938 1.0493 0.37233 2.148 0.96497 3.2988 1.7773l4.3672-5.4824c-1.4555-1.4555-3.1637-2.5561-5.127-3.3008-1.9294-0.74468-3.8766-1.1172-5.8398-1.1172zm211.02 0c-2.9787 0-5.7198 0.69423-8.2246 2.082-2.5048 1.3878-4.5028 3.4008-5.9922 6.041-1.4893 2.6064-2.2324 5.6881-2.2324 9.2422 0 3.6218 0.72616 6.7016 2.1816 9.2402s3.4366 4.4501 5.9414 5.7363c2.5386 1.2524 5.3814 1.8789 8.5293 1.8789 2.234 0 4.3506-0.37251 6.3477-1.1172 1.997-0.77852 3.6037-1.7587 4.8223-2.9434v-15.74h-12.592v7.1074h4.875v4.5703c-0.60927 0.40618-1.4559 0.60937-2.5391 0.60937-2.911 0-5.0764-0.81277-6.498-2.4375-1.4216-1.6586-2.1328-4.0611-2.1328-7.209 0-2.9448 0.72811-5.2646 2.1836-6.957 1.4555-1.7263 3.3331-2.5898 5.6348-2.5898 1.2185 0 2.2684 0.2032 3.1484 0.60938 0.91391 0.40618 1.8283 1.0158 2.7422 1.8281l4.5684-5.584c-1.2862-1.2863-2.8421-2.3361-4.6699-3.1484-1.794-0.81237-3.8259-1.2188-6.0938-1.2188zm-288.62 0.60938v33.002h8.7324v-11.068h3.3516l5.6855 11.068h9.75l-7.1602-12.795c1.6586-0.91392 2.9624-2.165 3.9102-3.7559 0.94776-1.5909 1.4219-3.5212 1.4219-5.7891 0-3.8249-1.2192-6.5491-3.6562-8.1738-2.4032-1.6586-5.5847-2.4883-9.5449-2.4883h-12.49zm94.293 0v33.002h8.7344v-33.002h-8.7344zm15.564 0v33.002h21.834v-7.3106h-13.1v-5.8906h10.764v-7.3106h-10.764v-5.1797h12.592v-7.3105h-21.326zm42.377 0v33.002h21.225v-7.3106h-12.49v-25.691h-8.7344zm26.375 0v33.002h21.832v-7.3106h-13.1v-5.8906h10.764v-7.3106h-10.764v-5.1797h12.592v-7.3105h-21.324zm27.559 0v17.061c0 5.6189 1.1176 9.7823 3.3516 12.49 2.2678 2.7079 5.7202 4.0605 10.357 4.0605 4.6034 0 8.0049-1.3377 10.205-4.0117 2.2001-2.7079 3.3008-6.8863 3.3008-12.539v-17.061h-8.4297v18.074c0 2.8771-0.40443 4.9429-1.2168 6.1953-0.81236 1.2186-2.0993 1.8281-3.8594 1.8281s-3.0301-0.60957-3.8086-1.8281c-0.77851-1.2186-1.168-3.2843-1.168-6.1953v-18.074h-8.7324zm33.816 0v33.002h8.3262v-9.5449c0-2.3356-0.27092-5.6355-0.8125-9.9004l-0.30469-2.6914h0.20312l3.1484 7.3613 7.3106 14.775h8.9356v-33.002h-8.3262v9.5449c0 2.3694 0.28786 5.8894 0.86328 10.561 0.13538 0.98162 0.22004 1.6589 0.25391 2.0312h-0.20312l-3.1484-7.4121-7.3106-14.725h-8.9355zm-231.25 6.9043h3.1484c1.794 0 3.1147 0.28786 3.9609 0.86328 0.88006 0.54158 1.3203 1.5068 1.3203 2.8945 0 1.4216-0.45719 2.5053-1.3711 3.25-0.88006 0.74468-2.1839 1.1172-3.9102 1.1172h-3.1484v-8.125zm36.709 0c1.9971 0 3.5549 0.8297 4.6719 2.4883 1.1508 1.6586 1.7266 3.9784 1.7266 6.957 0 3.0125-0.57572 5.3981-1.7266 7.1582-1.1508 1.7263-2.7087 2.5898-4.6719 2.5898-1.9632 0-3.5191-0.86356-4.6699-2.5898-1.1508-1.7601-1.7266-4.1457-1.7266-7.1582 0-2.9787 0.55878-5.2984 1.6758-6.957 1.1508-1.6586 2.7236-2.4883 4.7207-2.4883zm177.08 38.793c-1.1732 0-2.2118 0.26921-3.1152 0.80859-0.88998 0.53938-1.5851 1.3209-2.084 2.3457-0.49893 1.0113-0.74805 2.2267-0.74805 3.6426 0 1.4024 0.24912 2.6279 0.74805 3.6797 0.49892 1.0383 1.194 1.8339 2.084 2.3867 0.90346 0.55287 1.9421 0.83008 3.1152 0.83008 1.1731 0 2.2038-0.27721 3.0938-0.83008 0.90346-0.55286 1.5985-1.3484 2.084-2.3867 0.49893-1.0518 0.74805-2.2773 0.74805-3.6797 0-1.4024-0.24912-2.6178-0.74805-3.6426-0.48544-1.0248-1.1805-1.8063-2.084-2.3457-0.88998-0.53938-1.9206-0.80859-3.0938-0.80859zm-222.52 0.24219l2.5078 13.209h3.418l1.3555-6.3105c0.10788-0.47196 0.24248-1.1811 0.4043-2.125l0.16211-0.92969h0.082031c0.14833 1.0248 0.32917 2.0434 0.54492 3.0547l1.3965 6.3105h3.4785l2.4062-13.209h-2.6484l-0.99219 6.332c-0.12136 0.80908-0.3102 2.2033-0.56641 4.1856h-0.080078l-0.36523-1.8398-0.46484-2.3457-1.4766-6.332h-2.3652l-1.498 6.332-0.80859 4.1856h-0.080078l-0.56641-4.1856-0.99219-6.332h-2.8516zm29.559 0v13.209h8.375v-2.3262h-5.6035v-3.3379h4.5918v-2.3262h-4.5918v-2.8926h5.4004v-2.3262h-8.1719zm22.932 0v13.209h4.793c1.5237 0 2.7592-0.32344 3.7031-0.9707 0.94391-0.66075 1.4141-1.633 1.4141-2.9141 0-0.84953-0.22103-1.5306-0.66602-2.043-0.44499-0.5259-1.0396-0.88153-1.7812-1.0703v-0.08204c0.53937-0.20226 0.9713-0.57389 1.2949-1.1133 0.32363-0.53938 0.48633-1.118 0.48633-1.7383 0-2.1845-1.6051-3.2773-4.8145-3.2773h-4.4297zm49.518 0v13.209h3.8223c1.9957 0 3.5607-0.56047 4.6934-1.6797 1.1462-1.1327 1.7188-2.7901 1.7188-4.9746s-0.57862-3.8238-1.7383-4.916c-1.1462-1.0922-2.7574-1.6387-4.834-1.6387h-3.6621zm24.709 0v13.209h8.375v-2.3262h-5.6035v-3.3379h4.5918v-2.3262h-4.5918v-2.8926h5.4004v-2.3262h-8.1719zm21.213 0l4.0254 13.209h3.3164l4.0254-13.209h-2.832l-1.6582 6.3106-0.4043 1.6191c-0.39104 1.5238-0.62007 2.4057-0.6875 2.6484h-0.08203c0.06742 0.26969-0.11537-0.44352-0.54687-2.1426-0.16182-0.68773-0.34266-1.3968-0.54492-2.125l-1.6797-6.3106h-2.9316zm24.768 0v13.209h8.375v-2.3262h-5.6035v-3.3379h4.5918v-2.3262h-4.5918v-2.8926h5.4004v-2.3262h-8.1719zm22.932 0v13.209h8.0703v-2.3262h-5.2988v-10.883h-2.7715zm47.285 0v13.209h2.7715v-4.6113h1.7188c1.4968 0 2.7242-0.37163 3.6816-1.1133s1.4355-1.8405 1.4355-3.2969c0-1.4833-0.4721-2.548-1.416-3.1953-0.93043-0.66074-2.1901-0.99219-3.7812-0.99219h-4.4102zm23.879 0v13.209h8.375v-2.3262h-5.6035v-3.3379h4.5918v-2.3262h-4.5918v-2.8926h5.4004v-2.3262h-8.1719zm22.932 0v13.209h2.7715v-4.8945h1.7598l2.6289 4.8945h3.1152l-3.0547-5.3613c0.76862-0.31014 1.3693-0.78224 1.8008-1.416 0.4315-0.64726 0.64649-1.4428 0.64649-2.3867 0-1.4428-0.45201-2.4735-1.3555-3.0938-0.90345-0.63377-2.1229-0.95117-3.6602-0.95117h-4.6523zm-234.46 2.1445h1.5176c0.76861 0 1.3332 0.12055 1.6973 0.36328 0.36409 0.24273 0.54688 0.63445 0.54688 1.1738 0 0.52589-0.18884 0.93771-0.56641 1.2344-0.36409 0.28318-0.93061 0.42383-1.6992 0.42383h-1.4961v-3.1953zm167.26 0.01953c0.9439 0 1.6913 0.39172 2.2441 1.1738 0.56635 0.7821 0.84961 1.8548 0.84961 3.2168 0 1.3754-0.28326 2.4663-0.84961 3.2754-0.55287 0.80907-1.3002 1.2148-2.2441 1.2148-0.94392 0-1.6993-0.40577-2.2656-1.2148-0.55286-0.80908-0.83008-1.9-0.83007-3.2754-1e-5 -1.3754 0.27721-2.4482 0.83007-3.2168 0.55287-0.78211 1.3082-1.1738 2.2656-1.1738zm23.168 0.04102h1.4551c0.90346 0 1.5724 0.15469 2.0039 0.46484 0.44499 0.31014 0.66602 0.81638 0.66602 1.5176 0 1.4698-0.86188 2.2051-2.5879 2.2051h-1.5371v-4.1875zm46.811 0h1.6387c0.863 0 1.5038 0.14064 1.9219 0.42382s0.62695 0.75528 0.62695 1.416c0 0.68771-0.21693 1.208-0.64843 1.5586-0.43151 0.33712-1.0644 0.50586-1.9004 0.50586h-1.6387v-3.9043zm-187.72 0.04101h0.72851c1.2541 0 2.2104 0.33749 2.8711 1.0117 0.67422 0.67423 1.0117 1.7731 1.0117 3.2969 1e-5 2.9396-1.2938 4.4082-3.8828 4.4082h-0.72851v-8.7168zm-49.518 5.1582h1.7793c0.88997 0 1.5509 0.14065 1.9824 0.42383 0.44499 0.26969 0.66797 0.70765 0.66797 1.3145 0 1.281-0.88392 1.9219-2.6504 1.9219h-1.7793v-3.6602z" stroke-width="0" />
</g>
</svg>
