<?xml version="1.0" encoding="UTF-8" standalone="no"?>
<svg
   xmlns:dc="http://purl.org/dc/elements/1.1/"
   xmlns:cc="http://creativecommons.org/ns#"
   xmlns:rdf="http://www.w3.org/1999/02/22-rdf-syntax-ns#"
   xmlns:svg="http://www.w3.org/2000/svg"
   xmlns="http://www.w3.org/2000/svg"
   xmlns:xlink="http://www.w3.org/1999/xlink"
   xmlns:sodipodi="http://sodipodi.sourceforge.net/DTD/sodipodi-0.dtd"
   xmlns:inkscape="http://www.inkscape.org/namespaces/inkscape"
   version="1.1"
   id="svg2"
   viewBox="0 0 600 180"
   height="180"
   width="600"
   sodipodi:docname="logo_full_both_FINAL.svg"
   inkscape:export-filename="C:\Users\Rosie\Google Drive\Clients\Rosie Leung\logo_horiz_white.png"
   inkscape:export-xdpi="96"
   inkscape:export-ydpi="96"
   inkscape:version="0.92.2 (5c3e80d, 2017-08-06)">
  <sodipodi:namedview
     pagecolor="#ffffff"
     bordercolor="#666666"
     borderopacity="1"
     objecttolerance="10"
     gridtolerance="10"
     guidetolerance="10"
     inkscape:pageopacity="0"
     inkscape:pageshadow="2"
     inkscape:window-width="1920"
     inkscape:window-height="1001"
     id="namedview3760"
     showgrid="false"
     inkscape:zoom="1.2208333"
     inkscape:cx="308.50727"
     inkscape:cy="-111.37876"
     inkscape:window-x="-9"
     inkscape:window-y="-9"
     inkscape:window-maximized="1"
     inkscape:current-layer="g294" />
  <defs
     id="defs4" />
  <metadata
     id="metadata7">
    <rdf:RDF>
      <cc:Work
         rdf:about="">
        <dc:format>image/svg+xml</dc:format>
        <dc:type
           rdf:resource="http://purl.org/dc/dcmitype/StillImage" />
        <dc:title></dc:title>
      </cc:Work>
    </rdf:RDF>
  </metadata>
  <g
     transform="translate(228.80132,-173.74837)"
     id="layer1">
    <use
       height="100%"
       width="100%"
       transform="translate(-106.43973,511.19791)"
       id="use325"
       xlink:href="#g257"
       y="0"
       x="0"
       inkscape:export-xdpi="96"
       inkscape:export-ydpi="96" />
    <use
       height="100%"
       width="100%"
       transform="translate(218.56027,331.19789)"
       id="use323"
       xlink:href="#g294"
       y="0"
       x="0"
       inkscape:export-xdpi="96"
       inkscape:export-ydpi="96" />
    <flowRoot
       transform="matrix(0.99677454,0,0,0.99677454,1379.7714,674.55248)"
       style="font-style:normal;font-variant:normal;font-weight:bold;font-stretch:normal;font-size:21.01733208px;line-height:1.25;font-family:Assistant;-inkscape-font-specification:'Assistant, Bold';font-variant-ligatures:normal;font-variant-caps:normal;font-variant-numeric:normal;font-feature-settings:normal;text-align:start;writing-mode:lr-tb;text-anchor:start;opacity:1;fill:#000000;fill-opacity:1;fill-rule:evenodd;stroke:#000000;stroke-width:0.94053358;stroke-linecap:butt;stroke-linejoin:miter;stroke-miterlimit:4;stroke-dasharray:none;stroke-dashoffset:0;stroke-opacity:1;paint-order:fill markers stroke"
       id="flowRoot869"
       xml:space="preserve"><flowRegion
         style="fill:#000000;fill-opacity:1;stroke-width:0.94053358"
         id="flowRegion871"><rect
           style="fill:#000000;fill-opacity:1;stroke-width:0.94053358"
           y="-123.87222"
           x="460.63574"
           height="71.641296"
           width="284.78894"
           id="rect873" /></flowRegion><flowPara
         style="stroke-width:0.94053358"
         id="flowPara875" /></flowRoot>    <g
       transform="translate(0,-1.0486282)"
       id="g257"
       inkscape:export-xdpi="96"
       inkscape:export-ydpi="96">
      <text
         transform="scale(0.99999601,1.000004)"
         xml:space="preserve"
         style="font-style:normal;font-variant:normal;font-weight:800;font-stretch:normal;font-size:50.77279282px;line-height:0%;font-family:Assistant;-inkscape-font-specification:'Assistant, Ultra-Bold';font-variant-ligatures:normal;font-variant-caps:normal;font-variant-numeric:normal;font-feature-settings:normal;text-align:start;writing-mode:lr-tb;text-anchor:start;opacity:1;fill:#000000;fill-opacity:1;fill-rule:nonzero;stroke:#000000;stroke-width:0;stroke-linecap:square;stroke-linejoin:miter;stroke-miterlimit:4;stroke-dasharray:none;stroke-dashoffset:0;stroke-opacity:1"
         x="67.543327"
         y="268.40765"
         id="text179"><tspan
           x="67.543327"
           y="268.40765"
           style="font-style:normal;font-variant:normal;font-weight:800;font-stretch:normal;font-size:50.77279282px;line-height:110.00000238%;font-family:Assistant;-inkscape-font-specification:'Assistant, Ultra-Bold';font-variant-ligatures:normal;font-variant-caps:normal;font-variant-numeric:normal;font-feature-settings:normal;text-align:start;letter-spacing:-0.49999821px;word-spacing:4.99998188px;writing-mode:lr-tb;text-anchor:start;fill:#000000;fill-opacity:1;stroke-width:0"
           id="tspan177">ROSIE LEUNG</tspan></text>
      <text
         transform="scale(0.999996,1.000004)"
         id="text183"
         y="294.5531"
         x="70.895569"
         style="font-style:normal;font-variant:normal;font-weight:bold;font-stretch:normal;font-size:20.22678185px;line-height:0%;font-family:Assistant;-inkscape-font-specification:'Assistant, Bold';font-variant-ligatures:normal;font-variant-caps:normal;font-variant-numeric:normal;font-feature-settings:normal;text-align:start;letter-spacing:11.90935326px;word-spacing:5.47830439px;writing-mode:lr-tb;text-anchor:start;opacity:1;fill:#000000;fill-opacity:1;fill-rule:nonzero;stroke:#000000;stroke-width:0;stroke-linecap:square;stroke-linejoin:miter;stroke-miterlimit:4;stroke-dasharray:none;stroke-dashoffset:0;stroke-opacity:1"
         xml:space="preserve"><tspan
           id="tspan181"
           style="font-style:normal;font-variant:normal;font-weight:bold;font-stretch:normal;font-size:20.22678185px;line-height:110.00000238%;font-family:Assistant;-inkscape-font-specification:'Assistant, Bold';font-variant-ligatures:normal;font-variant-caps:normal;font-variant-numeric:normal;font-feature-settings:normal;text-align:start;letter-spacing:11.90935326px;word-spacing:9.46252346px;writing-mode:lr-tb;text-anchor:start;fill:#000000;fill-opacity:1;stroke-width:0"
           y="294.5531"
           x="70.895569">WEB DEVELOPER</tspan></text>
    </g>
    <g
       id="g294"
       inkscape:export-xdpi="96"
       inkscape:export-ydpi="96">
      <path class="moose-body-fill"
         d="m -78.901346,258.88263 10.72752,0.12586 40.33889,-1.09306 -4.28925,27.22194 -12.82505,0.0404 -29.99317,1.42682 z m -12.38793,-37.36622 -32.907484,0.9153 5.66555,35.01136 28.361264,0.66137 4.43655,-36.58803 z m -34.595544,0 h -5.94723 l -88.01285,-0.61656 -5.82736,-18.14369 16.4539,-22.29788 21.19955,-4.51403 1.08193,28.12308 21.44922,-14.19764 12.90048,19.66019 19.15428,-9.47738 z m 40.143364,2.52435 99.1013,-3.51339 0.79804,-23.80138 -19.4651801,-19.72576 -15.9843599,2.69518 -0.4581,24.41252 -21.6657,-14.32489 -12.8064,18.45888 -19.98802,-7.35323 z"
         style="opacity:1;fill:#ffffff;fill-opacity:1;stroke:none;stroke-width:1.2953167px;stroke-linecap:butt;stroke-linejoin:miter;stroke-opacity:1"
         id="path185" />
      <g
         style="stroke-width:0.94368488"
         transform="matrix(1.0596757,0,0,1.0596757,2.754934,-316.47627)"
         id="g213">
        <path
           style="fill:#000000;fill-opacity:1;stroke-width:0.94368488"
           d="m -146.4447,623.3759 20.13059,9.105 143.719198,-9.06944 z"
           id="path187" />
        <path
           id="path189"
           d="m -119.3312,507.10987 -0.1247,2.80285 30.8024,0.8793 1.6763,-6.10023 z"
           style="color:#000000;font-style:normal;font-variant:normal;font-weight:normal;font-stretch:normal;font-size:medium;line-height:normal;font-family:sans-serif;text-indent:0;text-align:start;text-decoration:none;text-decoration-line:none;text-decoration-style:solid;text-decoration-color:#000000;letter-spacing:normal;word-spacing:normal;text-transform:none;writing-mode:lr-tb;direction:ltr;baseline-shift:baseline;text-anchor:start;white-space:normal;clip-rule:nonzero;display:inline;overflow:visible;visibility:visible;opacity:1;isolation:auto;mix-blend-mode:normal;color-interpolation:sRGB;color-interpolation-filters:linearRGB;solid-color:#000000;solid-opacity:1;fill:#000000;fill-opacity:1;fill-rule:nonzero;stroke:none;stroke-width:7.35279703;stroke-linecap:square;stroke-linejoin:miter;stroke-miterlimit:4;stroke-dasharray:none;stroke-dashoffset:0;stroke-opacity:1;color-rendering:auto;image-rendering:auto;shape-rendering:auto;text-rendering:auto;enable-background:accumulate" />
        <path
           style="color:#000000;font-style:normal;font-variant:normal;font-weight:normal;font-stretch:normal;font-size:medium;line-height:normal;font-family:sans-serif;font-variant-ligatures:normal;font-variant-position:normal;font-variant-caps:normal;font-variant-numeric:normal;font-variant-alternates:normal;font-feature-settings:normal;text-indent:0;text-align:start;text-decoration:none;text-decoration-line:none;text-decoration-style:solid;text-decoration-color:#000000;letter-spacing:normal;word-spacing:normal;text-transform:none;writing-mode:lr-tb;direction:ltr;text-orientation:mixed;dominant-baseline:auto;baseline-shift:baseline;text-anchor:start;white-space:normal;shape-padding:0;clip-rule:nonzero;display:inline;overflow:visible;visibility:visible;opacity:1;isolation:auto;mix-blend-mode:normal;color-interpolation:sRGB;color-interpolation-filters:linearRGB;solid-color:#000000;solid-opacity:1;vector-effect:none;fill:#000000;fill-opacity:1;fill-rule:nonzero;stroke:none;stroke-width:0.53699905;stroke-linecap:square;stroke-linejoin:miter;stroke-miterlimit:4;stroke-dasharray:none;stroke-dashoffset:0;stroke-opacity:1;color-rendering:auto;image-rendering:auto;shape-rendering:auto;text-rendering:auto;enable-background:accumulate"
           d="m -19.658,462.99836 c -2.4241,0.66972 -4.227,2.23053 -5.0866,4.47757 -0.8596,2.24705 -0.7807,5.15713 0.4637,8.55377 1.8006,4.91485 1.0705,8.63454 -0.5883,10.32542 -0.8293,0.84543 -1.8769,1.20643 -3.0311,1.00347 -1.1543,-0.20295 -2.4231,-0.99157 -3.6264,-2.51215 -3.0043,-3.79663 -5.5216,-6.07496 -7.7164,-7.19042 -2.1947,-1.11546 -4.1,-1.03458 -5.7163,-0.0969 -3.2327,1.8754 -5.3666,6.94947 -7.6818,12.34621 -0.6872,1.60204 -2.8874,2.70205 -5.2873,2.98275 -2.3999,0.2807 -4.9457,-0.26649 -6.2631,-1.69553 -2.646,-2.87032 -5.0702,-4.22224 -7.2873,-4.33917 -2.217,-0.11693 -4.1685,1.02763 -5.8132,2.98967 -3.2895,3.92407 -5.4905,11.14988 -6.7198,18.95531 l -5.0382,31.99357 h -22.5193 l -3.3496,3.77168 h 0.6367 27.1907 l 7.0451,-35.11472 c 1.5621,-7.78836 3.5194,-13.07286 5.9171,-15.74419 1.1988,-1.33567 2.4893,-2.01964 3.917,-2.09692 1.4277,-0.0773 3.0238,0.45784 4.8098,1.66785 2.8674,1.94264 5.6767,4.02506 8.3115,4.27688 1.3174,0.12591 2.6004,-0.24042 3.7232,-1.30798 1.1229,-1.06756 2.0968,-2.81354 2.9343,-5.46721 1.2093,-3.83173 3.8953,-7.29206 7.0728,-8.55377 1.5887,-0.63085 3.2943,-0.72298 5.0451,-0.0623 1.7507,0.6607 3.5582,2.08808 5.2942,4.53986 1.7365,2.45271 3.4879,4.2134 5.1281,5.18347 1.6401,0.97007 3.2218,1.14569 4.4499,0.31834 1.228,-0.82734 2.0427,-2.56842 2.3737,-5.25959 0.331,-2.69117 0.1726,-6.36055 -0.6298,-11.12128 -0.564,-3.34672 0.1613,-5.4445 1.6194,-6.6783 1.4581,-1.2338 3.727,-1.62672 6.3254,-1.3495 5.1968,0.55443 11.625,3.78229 15.1075,7.58489 5.5575,6.06828 8.5053,13.9286 8.5953,20.24252 0.045,3.15696 -0.6206,5.92352 -2,7.88247 -1.3795,1.95896 -3.4556,3.13905 -6.3392,3.16268 -22.4799,0.18422 -76.8109,-1.77857 -76.8109,-1.77857 -0.9841,1.0097 -1.3056,4.82219 -1.2664,5.56396 0,0 51.5315,-0.52159 78.4025,-1.71629 7.2012,-0.32018 11.2899,-2.3618 13.1629,-5.44645 1.8729,-3.08466 1.4817,-7.1092 -0.048,-11.28737 C 11.9886,483.64588 4.3335,474.54293 0.1283,470.56246 h -0.01 v -0.007 c -7.6397,-6.77599 -14.93,-8.89668 -19.7783,-7.55722 z"
           id="path191" />
        <ellipse
           ry="2.6647012"
           rx="2.6645055"
           style="opacity:1;fill:#000000;fill-opacity:1;fill-rule:nonzero;stroke:none;stroke-width:6.1273303;stroke-linecap:square;stroke-linejoin:miter;stroke-miterlimit:4;stroke-dasharray:none;stroke-dashoffset:0;stroke-opacity:1"
           id="ellipse193"
           cx="-107.36858"
           cy="524.73651" />
        <ellipse
           ry="2.6647012"
           rx="2.6645055"
           cy="525.6153"
           cx="-95.087814"
           id="ellipse195"
           style="opacity:1;fill:#000000;fill-opacity:1;fill-rule:nonzero;stroke:none;stroke-width:6.1273303;stroke-linecap:square;stroke-linejoin:miter;stroke-miterlimit:4;stroke-dasharray:none;stroke-dashoffset:0;stroke-opacity:1" />
        <path
           id="path197"
           d="m -78.8655,521.04143 -3.1718,13.72241 7.5556,32.62257 6.8529,56.27134 h 6.6197 L -72.426,566.91163 Z"
           style="color:#000000;font-style:normal;font-variant:normal;font-weight:normal;font-stretch:normal;font-size:medium;line-height:normal;font-family:sans-serif;text-indent:0;text-align:start;text-decoration:none;text-decoration-line:none;text-decoration-style:solid;text-decoration-color:#000000;letter-spacing:normal;word-spacing:normal;text-transform:none;writing-mode:lr-tb;direction:ltr;baseline-shift:baseline;text-anchor:start;white-space:normal;clip-rule:nonzero;display:inline;overflow:visible;visibility:visible;opacity:1;isolation:auto;mix-blend-mode:normal;color-interpolation:sRGB;color-interpolation-filters:linearRGB;solid-color:#000000;solid-opacity:1;fill:#000000;fill-opacity:1;fill-rule:nonzero;stroke:none;stroke-width:7.35279703;stroke-linecap:square;stroke-linejoin:miter;stroke-miterlimit:4;stroke-dasharray:none;stroke-dashoffset:0;stroke-opacity:1;color-rendering:auto;image-rendering:auto;shape-rendering:auto;text-rendering:auto;enable-background:accumulate" />
        <path
           id="path199"
           d="m -22.9317,536.17595 -5.4038,0.60438 -0.8882,4.9479 -38.7452,-2.26096 1.3332,7.075 42.457,-3.78762 z"
           style="color:#000000;font-style:normal;font-variant:normal;font-weight:normal;font-stretch:normal;font-size:medium;line-height:normal;font-family:sans-serif;text-indent:0;text-align:start;text-decoration:none;text-decoration-line:none;text-decoration-style:solid;text-decoration-color:#000000;letter-spacing:normal;word-spacing:normal;text-transform:none;writing-mode:lr-tb;direction:ltr;baseline-shift:baseline;text-anchor:start;white-space:normal;clip-rule:nonzero;display:inline;overflow:visible;visibility:visible;opacity:1;isolation:auto;mix-blend-mode:normal;color-interpolation:sRGB;color-interpolation-filters:linearRGB;solid-color:#000000;solid-opacity:1;fill:#000000;fill-opacity:1;fill-rule:nonzero;stroke:none;stroke-width:7.35279703;stroke-linecap:square;stroke-linejoin:miter;stroke-miterlimit:4;stroke-dasharray:none;stroke-dashoffset:0;stroke-opacity:1;color-rendering:auto;image-rendering:auto;shape-rendering:auto;text-rendering:auto;enable-background:accumulate" />
        <path
           id="path201"
           d="m -73.3734,567.27121 0.1052,1.97028 28.4563,2.0266 1.0246,-7.45873 z"
           style="color:#000000;font-style:normal;font-variant:normal;font-weight:normal;font-stretch:normal;font-size:medium;line-height:normal;font-family:sans-serif;text-indent:0;text-align:start;text-decoration:none;text-decoration-line:none;text-decoration-style:solid;text-decoration-color:#000000;letter-spacing:normal;word-spacing:normal;text-transform:none;writing-mode:lr-tb;direction:ltr;baseline-shift:baseline;text-anchor:start;white-space:normal;clip-rule:nonzero;display:inline;overflow:visible;visibility:visible;opacity:1;isolation:auto;mix-blend-mode:normal;color-interpolation:sRGB;color-interpolation-filters:linearRGB;solid-color:#000000;solid-opacity:1;fill:#000000;fill-opacity:1;fill-rule:nonzero;stroke:none;stroke-width:7.35279703;stroke-linecap:square;stroke-linejoin:miter;stroke-miterlimit:4;stroke-dasharray:none;stroke-dashoffset:0;stroke-opacity:1;color-rendering:auto;image-rendering:auto;shape-rendering:auto;text-rendering:auto;enable-background:accumulate" />
        <path
           id="path203"
           d="m -29.0517,541.20695 -16.8851,82.4508 h 6.592 l 11.6621,-82.407 z"
           style="color:#000000;font-style:normal;font-variant:normal;font-weight:normal;font-stretch:normal;font-size:medium;line-height:normal;font-family:sans-serif;text-indent:0;text-align:start;text-decoration:none;text-decoration-line:none;text-decoration-style:solid;text-decoration-color:#000000;letter-spacing:normal;word-spacing:normal;text-transform:none;writing-mode:lr-tb;direction:ltr;baseline-shift:baseline;text-anchor:start;white-space:normal;clip-rule:nonzero;display:inline;overflow:visible;visibility:visible;opacity:1;isolation:auto;mix-blend-mode:normal;color-interpolation:sRGB;color-interpolation-filters:linearRGB;solid-color:#000000;solid-opacity:1;fill:#000000;fill-opacity:1;fill-rule:nonzero;stroke:none;stroke-width:7.35279703;stroke-linecap:square;stroke-linejoin:miter;stroke-miterlimit:4;stroke-dasharray:none;stroke-dashoffset:0;stroke-opacity:1;color-rendering:auto;image-rendering:auto;shape-rendering:auto;text-rendering:auto;enable-background:accumulate" />
        <path
           d="m -74.2343,566.86413 1.1324,3.11228 -7.0646,53.68134 h -6.5829 z m 42.6341,0 -1.1323,3.11228 7.0645,53.68134 h 6.5829 z"
           style="color:#000000;font-style:normal;font-variant:normal;font-weight:normal;font-stretch:normal;font-size:medium;line-height:normal;font-family:sans-serif;text-indent:0;text-align:start;text-decoration:none;text-decoration-line:none;text-decoration-style:solid;text-decoration-color:#000000;letter-spacing:normal;word-spacing:normal;text-transform:none;writing-mode:lr-tb;direction:ltr;baseline-shift:baseline;text-anchor:start;white-space:normal;clip-rule:nonzero;display:inline;overflow:visible;visibility:visible;opacity:1;isolation:auto;mix-blend-mode:normal;color-interpolation:sRGB;color-interpolation-filters:linearRGB;solid-color:#000000;solid-opacity:1;fill:#000000;fill-opacity:1;fill-rule:nonzero;stroke:none;stroke-width:7.35279703;stroke-linecap:square;stroke-linejoin:miter;stroke-miterlimit:4;stroke-dasharray:none;stroke-dashoffset:0;stroke-opacity:1;color-rendering:auto;image-rendering:auto;shape-rendering:auto;text-rendering:auto;enable-background:accumulate"
           id="path205" />
        <path
           style="color:#000000;font-style:normal;font-variant:normal;font-weight:normal;font-stretch:normal;font-size:medium;line-height:normal;font-family:sans-serif;font-variant-ligatures:normal;font-variant-position:normal;font-variant-caps:normal;font-variant-numeric:normal;font-variant-alternates:normal;font-feature-settings:normal;text-indent:0;text-align:start;text-decoration:none;text-decoration-line:none;text-decoration-style:solid;text-decoration-color:#000000;letter-spacing:normal;word-spacing:normal;text-transform:none;writing-mode:lr-tb;direction:ltr;text-orientation:mixed;dominant-baseline:auto;baseline-shift:baseline;text-anchor:start;white-space:normal;shape-padding:0;clip-rule:nonzero;display:inline;overflow:visible;visibility:visible;opacity:1;isolation:auto;mix-blend-mode:normal;color-interpolation:sRGB;color-interpolation-filters:linearRGB;solid-color:#000000;solid-opacity:1;vector-effect:none;fill:#000000;fill-opacity:1;fill-rule:nonzero;stroke:none;stroke-width:0.53699905;stroke-linecap:square;stroke-linejoin:miter;stroke-miterlimit:4;stroke-dasharray:none;stroke-dashoffset:0;stroke-opacity:1;color-rendering:auto;image-rendering:auto;shape-rendering:auto;text-rendering:auto;enable-background:accumulate"
           d="m -182.5048,462.99836 c -4.8482,-1.33946 -12.1317,0.78123 -19.7719,7.55721 l -0.01,0.007 c -4.2052,3.98048 -11.8672,13.08343 -14.9275,21.43978 -1.5301,4.17818 -1.9145,8.20272 -0.042,11.28737 1.873,3.08466 5.9617,5.12629 13.1628,5.44645 26.871,1.19471 78.4026,1.71629 78.4026,1.71629 l 0.3668,0.007 -1.4049,-5.58486 -0.2284,0.0138 c 0,0 -54.3309,1.9628 -76.8108,1.77858 -2.8836,-0.0238 -4.9598,-1.20391 -6.3392,-3.16286 -1.3795,-1.95895 -2.052,-4.72551 -2.007,-7.88248 0.09,-6.31392 3.0447,-14.17423 8.6022,-20.24252 3.4826,-3.8026 9.9107,-7.03046 15.1075,-7.58489 2.5984,-0.27722 4.8673,0.1157 6.3254,1.3495 1.4581,1.2338 2.1834,3.33158 1.6194,6.6783 -0.8024,4.76073 -0.9608,8.43011 -0.6298,11.12128 0.331,2.69117 1.1457,4.43225 2.3738,5.2596 1.228,0.82734 2.8097,0.65173 4.4499,-0.31835 1.6401,-0.97007 3.3915,-2.73076 5.1281,-5.18347 1.7359,-2.45178 3.5434,-3.87916 5.2942,-4.53986 1.7507,-0.6607 3.4563,-0.56857 5.045,0.0623 3.1775,1.2617 5.8635,4.72203 7.0728,8.55376 0.8375,2.65367 1.8114,4.39965 2.9343,5.46721 1.1229,1.06756 2.4058,1.43389 3.7232,1.30798 2.6348,-0.25181 5.4442,-2.33424 8.3116,-4.27688 1.786,-1.21001 3.382,-1.74512 4.8097,-1.66785 1.4278,0.0773 2.7113,0.76126 3.9101,2.09692 2.3977,2.67133 4.3619,7.95583 5.924,15.74419 l 7.0451,35.11472 h 27.8274 l -0.4221,-0.47059 -2.9344,-3.30109 h -22.5124 l -5.0381,-31.99357 c -1.2294,-7.80543 -3.4304,-15.03124 -6.7199,-18.95531 -1.6447,-1.96203 -3.5961,-3.10659 -5.8132,-2.98966 -2.2171,0.11693 -4.6412,1.46884 -7.2873,4.33916 -1.3174,1.42904 -3.8701,1.97623 -6.27,1.69553 -2.3999,-0.2807 -4.5932,-1.38071 -5.2804,-2.98275 -2.3151,-5.39674 -4.4491,-10.47081 -7.6817,-12.34621 -1.6164,-0.93769 -3.5216,-1.01857 -5.7164,0.0969 -2.1947,1.11546 -4.7121,3.39379 -7.7164,7.19042 -1.2032,1.52058 -2.479,2.3092 -3.6332,2.51215 -1.1543,0.20296 -2.2019,-0.15804 -3.0312,-1.00347 -1.6588,-1.69088 -2.382,-5.41057 -0.5814,-10.32542 1.2445,-3.39664 1.3233,-6.30672 0.4637,-8.55377 -0.8596,-2.24704 -2.6694,-3.80785 -5.0935,-4.47757 z"
           id="path207" />
        <path
           style="color:#000000;font-style:normal;font-variant:normal;font-weight:normal;font-stretch:normal;font-size:medium;line-height:normal;font-family:sans-serif;text-indent:0;text-align:start;text-decoration:none;text-decoration-line:none;text-decoration-style:solid;text-decoration-color:#000000;letter-spacing:normal;word-spacing:normal;text-transform:none;writing-mode:lr-tb;direction:ltr;baseline-shift:baseline;text-anchor:start;white-space:normal;clip-rule:nonzero;display:inline;overflow:visible;visibility:visible;opacity:1;isolation:auto;mix-blend-mode:normal;color-interpolation:sRGB;color-interpolation-filters:linearRGB;solid-color:#000000;solid-opacity:1;fill:#000000;fill-opacity:1;fill-rule:nonzero;stroke:none;stroke-width:7.35279703;stroke-linecap:square;stroke-linejoin:miter;stroke-miterlimit:4;stroke-dasharray:none;stroke-dashoffset:0;stroke-opacity:1;color-rendering:auto;image-rendering:auto;shape-rendering:auto;text-rendering:auto;enable-background:accumulate"
           d="m -88.9049,540.84212 1.8279,3.73947 -27.7348,1.63193 -0.9952,-6.76756 z"
           id="path209" />
        <path
           style="color:#000000;font-style:normal;font-variant:normal;font-weight:normal;font-stretch:normal;font-size:medium;line-height:normal;font-family:sans-serif;text-indent:0;text-align:start;text-decoration:none;text-decoration-line:none;text-decoration-style:solid;text-decoration-color:#000000;letter-spacing:normal;word-spacing:normal;text-transform:none;writing-mode:lr-tb;direction:ltr;baseline-shift:baseline;text-anchor:start;white-space:normal;clip-rule:nonzero;display:inline;overflow:visible;visibility:visible;opacity:1;isolation:auto;mix-blend-mode:normal;color-interpolation:sRGB;color-interpolation-filters:linearRGB;solid-color:#000000;solid-opacity:1;fill:#000000;fill-opacity:1;fill-rule:nonzero;stroke:none;stroke-width:7.35279703;stroke-linecap:square;stroke-linejoin:miter;stroke-miterlimit:4;stroke-dasharray:none;stroke-dashoffset:0;stroke-opacity:1;color-rendering:auto;image-rendering:auto;shape-rendering:auto;text-rendering:auto;enable-background:accumulate"
           d="m -75.2021,504.88827 -1.2664,5.56396 -5.9322,0.068 2.9757,-5.76728 z"
           id="path211" />
      </g>
    </g>
  </g>
</svg>
