<svg xmlns="http://www.w3.org/2000/svg" version="1.1" width="600" height="180"><path d="M317.77 93.612l-5.686-11.069h-3.351v11.069H300V60.609h12.49q5.94 0 9.545 2.488 3.656 2.437 3.656 8.175 0 3.401-1.422 5.788-1.421 2.386-3.91 3.757l7.16 12.795zm-9.037-17.974h3.148q2.59 0 3.91-1.117 1.37-1.117 1.37-3.25 0-2.081-1.32-2.893-1.27-.864-3.96-.864h-3.148zm36.709 18.583q-4.57 0-8.073-2.03-3.452-2.083-5.382-5.992-1.878-3.91-1.878-9.24 0-5.332 1.878-9.14 1.93-3.859 5.382-5.839 3.504-1.98 8.073-1.98 4.57 0 8.022 2.03 3.503 1.981 5.382 5.79 1.93 3.807 1.93 9.138 0 5.331-1.93 9.24-1.879 3.91-5.382 5.992-3.452 2.031-8.022 2.031zm0-7.514q2.945 0 4.671-2.59 1.726-2.64 1.726-7.159 0-4.468-1.726-6.956-1.675-2.488-4.67-2.488-2.997 0-4.723 2.488-1.675 2.488-1.675 6.956 0 4.519 1.726 7.16 1.726 2.589 4.671 2.589zm31.152 7.514q-3.25 0-6.6-1.168-3.3-1.218-5.89-3.554l4.976-5.991q1.777 1.422 3.858 2.335 2.082.864 3.86.864 3.756 0 3.756-2.336 0-.762-.507-1.219-.508-.507-1.574-.964-1.067-.508-2.387-1.016l-4.112-1.726q-2.945-1.168-4.824-3.503-1.828-2.336-1.828-5.687 0-2.792 1.574-5.128 1.574-2.386 4.367-3.757Q374.106 60 377.609 60q2.945 0 5.84 1.117 2.944 1.117 5.127 3.3l-4.366 5.484q-1.726-1.219-3.3-1.777-1.524-.61-3.3-.61-1.625 0-2.54.61-.913.558-.913 1.624 0 .762.558 1.27.559.507 1.727 1.015 1.167.508 2.59 1.016l4.01 1.574q6.448 2.538 6.448 9.037 0 2.844-1.574 5.28-1.523 2.387-4.468 3.86-2.894 1.421-6.854 1.421zm17.7-33.611h8.732v33.002h-8.732zm15.564 0h21.325v7.31H418.59v5.18h10.764v7.31H418.59v5.89h13.1v7.312h-21.833zm42.377 0h8.733V86.3h12.49v7.312h-21.223zm26.375 0h21.324v7.31h-12.592v5.18h10.764v7.31h-10.764v5.89h13.1v7.312h-21.833zm41.267 33.611q-6.956 0-10.358-4.062-3.35-4.062-3.35-12.49v-17.06h8.732v18.075q0 4.367 1.168 6.195 1.167 1.828 3.808 1.828 2.64 0 3.858-1.828 1.219-1.879 1.219-6.195V60.61h8.428v17.06q0 8.48-3.3 12.54-3.3 4.012-10.205 4.012zm20.107-33.611h8.936l7.311 14.723 3.148 7.413h.203q-.05-.558-.254-2.03-.863-7.007-.863-10.561v-9.546h8.327v33.003h-8.936l-7.311-14.775-3.148-7.362h-.203l.304 2.69q.813 6.398.813 9.901v9.546h-8.327zm48.845 33.611q-4.722 0-8.53-1.879-3.757-1.929-5.94-5.737-2.184-3.808-2.184-9.24 0-5.332 2.234-9.241 2.234-3.96 5.991-6.042Q584.158 60 588.626 60q3.401 0 6.092 1.219 2.742 1.218 4.671 3.147l-4.57 5.586q-1.37-1.219-2.741-1.828-1.32-.61-3.148-.61-3.452 0-5.636 2.59-2.183 2.538-2.183 6.956 0 4.722 2.133 7.21 2.132 2.437 6.498 2.437 1.625 0 2.54-.61v-4.57h-4.875V74.42h12.592v15.74q-1.828 1.776-4.824 2.944-2.995 1.117-6.346 1.117zM300 106.55h2.852l.991 6.33.566 4.187h.081l.81-4.187 1.496-6.33h2.367l1.476 6.33.465 2.346.365 1.841h.08q.385-2.973.567-4.187l.99-6.33h2.65l-2.406 13.207h-3.48l-1.395-6.31q-.324-1.518-.546-3.055h-.081l-.162.93q-.243 1.417-.404 2.125l-1.356 6.31h-3.418zm29.559 0h8.172v2.325h-5.4v2.893h4.59v2.326h-4.59v3.337h5.602v2.326h-8.374zm22.931 0h4.43q4.814 0 4.814 3.276 0 .93-.486 1.74-.485.808-1.294 1.112v.08q1.112.284 1.78 1.073.667.768.667 2.043 0 1.921-1.415 2.912-1.416.971-3.702.971h-4.794zm4.268 5.339q1.153 0 1.7-.425.566-.445.566-1.234 0-.809-.547-1.173-.546-.364-1.699-.364h-1.517v3.196zm.283 5.724q2.65 0 2.65-1.921 0-.91-.667-1.315-.648-.425-1.983-.425h-1.78v3.661zm44.967-11.063h3.661q3.115 0 4.834 1.638 1.74 1.638 1.74 4.915 0 3.276-1.72 4.975-1.699 1.68-4.692 1.68h-3.823zm3.5 10.962q3.883 0 3.883-4.41 0-2.285-1.012-3.296-.99-1.012-2.872-1.012h-.728v8.718zm21.209-10.962h8.172v2.325h-5.4v2.893h4.59v2.326h-4.59v3.337h5.602v2.326h-8.374zm21.213 0h2.932l1.679 6.31q.303 1.092.546 2.124.647 2.548.546 2.144h.08q.102-.364.689-2.65l.404-1.618 1.659-6.31h2.831l-4.025 13.207h-3.317zm24.768 0h8.172v2.325h-5.4v2.893h4.59v2.326h-4.59v3.337h5.602v2.326h-8.374zm22.932 0h2.77v10.881h5.3v2.326h-8.07zM522.517 120q-1.76 0-3.115-.83-1.335-.829-2.083-2.386-.749-1.578-.749-3.681 0-2.124.749-3.641.748-1.537 2.083-2.346 1.355-.81 3.115-.81 1.76 0 3.095.81 1.355.809 2.083 2.346.748 1.537.748 3.64 0 2.104-.748 3.682-.728 1.557-2.083 2.387-1.335.829-3.095.829zm0-2.407q1.416 0 2.245-1.214.85-1.213.85-3.276 0-2.043-.85-3.216-.83-1.174-2.245-1.174-1.436 0-2.265 1.174-.83 1.153-.83 3.216t.83 3.276q.849 1.214 2.265 1.214zm20.397-11.043h4.41q2.386 0 3.782.99 1.416.971 1.416 3.196 0 2.185-1.436 3.297-1.436 1.113-3.682 1.113h-1.719v4.611h-2.77zm4.308 6.39q2.59 0 2.59-2.204 0-1.052-.668-1.517-.647-.465-2.002-.465h-1.457v4.187zm19.572-6.39h8.171v2.325h-5.4v2.893h4.591v2.326h-4.591v3.337h5.602v2.326h-8.373zm30.091 13.207l-2.63-4.895h-1.76v4.895h-2.77V106.55h4.652q2.306 0 3.661.95 1.355.931 1.355 3.096 0 1.415-.647 2.386-.647.951-1.8 1.416l3.054 5.36zm-4.39-7.1h1.64q1.253 0 1.9-.505.648-.526.648-1.557 0-.992-.627-1.416-.627-.425-1.922-.425h-1.638z"/><path class="moose-body-fill" fill="#c7a382" d="M149.9 85.134l10.727.126 40.34-1.093-4.29 27.222-12.825.04-29.993 1.427zm-12.388-37.366l-32.907.915 5.665 35.012 28.361.661 4.437-36.588zm-34.596 0H96.97l-88.013-.617L3.13 29.008 19.583 6.71l21.2-4.514 1.081 28.123 21.45-14.198 12.9 19.66 19.154-9.477zm40.144 2.524l99.101-3.513.798-23.801-19.465-19.726-15.984 2.695-.458 24.413-21.666-14.325-12.807 18.459-19.988-7.354z"/><path d="M76.371 170.354l21.332 9.648L250 170.392zM105.103 47.15l-.132 2.97 32.641.931 1.776-6.464z"/><path d="M210.725.405c-2.569.71-4.48 2.363-5.39 4.745-.912 2.381-.827 5.465.49 9.064 1.908 5.209 1.135 9.15-.622 10.942-.88.896-1.99 1.279-3.212 1.064-1.224-.216-2.568-1.052-3.844-2.663-3.183-4.023-5.85-6.438-8.176-7.62-2.326-1.181-4.345-1.096-6.057-.102-3.426 1.988-5.687 7.364-8.14 13.083-.729 1.697-3.061 2.863-5.604 3.16-2.543.297-5.24-.281-6.637-1.796-2.804-3.04-5.373-4.475-7.722-4.599-2.35-.124-4.417 1.09-6.16 3.169-3.486 4.158-5.817 11.815-7.12 20.086l-5.34 33.903h-23.863l-3.55 3.998h29.488l7.466-37.211c1.656-8.253 3.73-13.853 6.271-16.684 1.27-1.415 2.638-2.14 4.15-2.222 1.513-.082 3.204.485 5.098 1.768 3.038 2.058 6.015 4.265 8.806 4.532 1.396.132 2.756-.254 3.946-1.386 1.19-1.132 2.222-2.982 3.11-5.794 1.281-4.06 4.128-7.728 7.494-9.064 1.684-.669 3.492-.766 5.346-.067 1.856.7 3.772 2.213 5.611 4.811 1.84 2.6 3.695 4.466 5.434 5.494 1.738 1.028 3.414 1.213 4.716.337 1.301-.877 2.164-2.723 2.515-5.574.35-2.85.183-6.74-.668-11.785-.598-3.547.172-5.769 1.717-7.076 1.545-1.308 3.949-1.725 6.702-1.431 5.507.588 12.319 4.009 16.01 8.038 5.888 6.43 9.012 14.76 9.108 21.45.047 3.346-.657 6.277-2.12 8.353-1.462 2.077-3.662 3.328-6.718 3.352-23.822.195-81.394-1.885-81.394-1.885-1.043 1.07-1.384 5.11-1.343 5.896 0 0 54.608-.552 83.082-1.819 7.631-.339 11.964-2.503 13.949-5.772 1.985-3.268 1.57-7.533-.05-11.96-3.243-8.855-11.356-18.502-15.811-22.72h-.01v-.007c-8.097-7.18-15.822-9.427-20.96-8.008z"/><circle cx="117.779" cy="65.828" r="2.824"/><circle cx="130.793" cy="66.759" r="2.824"/><path d="M147.984 61.912l-3.361 14.542 8.006 34.569 7.262 59.63h7.015l-12.098-60.133zm59.271 16.038l-5.726.64-.941 5.243-41.057-2.395 1.412 7.497 44.991-4.013z"/><path d="M153.804 110.9l.111 2.088 30.155 2.148 1.086-7.904zm46.966-27.619l-17.893 87.37h6.986l12.358-87.323z"/><path d="M152.892 110.47l1.2 3.297-7.486 56.886h-6.976zm45.178 0l-1.2 3.297 7.486 56.886h6.976zM38.16.405c-5.138-1.42-12.856.828-20.953 8.009l-.01.007C12.74 12.64 4.62 22.285 1.379 31.141c-1.622 4.427-2.03 8.691-.045 11.96 1.985 3.268 6.318 5.432 13.949 5.771 28.473 1.267 83.08 1.819 83.08 1.819l.39.007-1.49-5.917-.24.014s-57.574 2.08-81.396 1.885c-3.056-.026-5.256-1.276-6.718-3.352-1.462-2.076-2.174-5.007-2.126-8.352.095-6.691 3.226-15.021 9.115-21.451 3.691-4.03 10.502-7.45 16.009-8.038 2.754-.294 5.159.123 6.704 1.43 1.545 1.308 2.313 3.53 1.716 7.077-.85 5.044-1.02 8.933-.667 11.785.35 2.851 1.213 4.697 2.514 5.574 1.302.876 2.978.69 4.716-.337 1.738-1.028 3.594-2.894 5.434-5.494 1.84-2.598 3.755-4.111 5.61-4.81 1.855-.7 3.663-.603 5.346.066 3.368 1.336 6.214 5.004 7.495 9.064.888 2.812 1.92 4.662 3.11 5.794 1.19 1.13 2.549 1.518 3.945 1.385 2.793-.266 5.77-2.473 8.807-4.531 1.893-1.283 3.584-1.85 5.097-1.768 1.514.082 2.873.807 4.144 2.222 2.54 2.83 4.622 8.431 6.277 16.684l7.466 37.21h29.489l-.448-.499-3.11-3.498h-23.855l-5.339-33.903c-1.303-8.27-3.635-15.927-7.121-20.086-1.743-2.08-3.81-3.293-6.16-3.169-2.35.124-4.919 1.558-7.723 4.6-1.396 1.514-4.1 2.093-6.644 1.796-2.543-.297-4.867-1.463-5.595-3.161-2.453-5.719-4.716-11.095-8.14-13.083-1.713-.994-3.732-1.079-6.058.103-2.326 1.181-4.993 3.596-8.177 7.619-1.275 1.611-2.627 2.447-3.85 2.663-1.223.215-2.334-.168-3.212-1.064-1.758-1.791-2.524-5.733-.616-10.942 1.318-3.6 1.402-6.683.49-9.064-.91-2.381-2.828-4.035-5.396-4.745z"/><path d="M137.345 82.894l1.937 3.964-29.39 1.73-1.054-7.173zm14.52-38.1l-1.342 5.897-6.286.072 3.154-6.111z"/></svg>