<svg xmlns="http://www.w3.org/2000/svg" viewBox="0 0 66.3 47.9"><path d="m9.3 0c-1.3 0-3 0.7-4.7 2.2v0c-1.2 1.1-3.3 3.7-4.2 6-0.4 1.2-0.6 2.3 0 3.2 0.5 0.9 1.7 1.5 3.7 1.5 7.6 0.3 22.1 0.5 22.1 0.5h0.1l-0.4-1.6h-0.1c0 0-15.3 0.6-21.7 0.5-0.8 0-1.4-0.3-1.8-0.9C2 11 1.8 10.2 1.8 9.3 1.8 7.5 2.7 5.3 4.2 3.6 5.2 2.5 7 1.6 8.5 1.5c0.7-0.1 1.4 0 1.8 0.4 0.4 0.3 0.6 0.9 0.4 1.9-0.2 1.3-0.3 2.4-0.2 3.1 0.1 0.8 0.3 1.3 0.7 1.5 0.3 0.2 0.8 0.2 1.2-0.1 0.4-0.3 1-0.8 1.5-1.5 0.5-0.7 1-1.1 1.5-1.3 0.5-0.2 1-0.2 1.4 0 0.9 0.4 1.7 1.3 2 2.4 0.2 0.8 0.5 1.2 0.8 1.6 0.3 0.3 0.7 0.4 1 0.4 0.8-0.1 1.6-0.7 2.4-1.2 0.5-0.3 1-0.5 1.3-0.5 0.4 0 0.8 0.2 1.1 0.6 0.7 0.7 1.2 2.2 1.7 4.4l2 9.9h0l0.1 0.5 7.8-0.5v0l1.9-9.6 1.1 0c0 0 14.6-0.1 22.1-0.5 2-0.1 3.2-0.7 3.7-1.5 0.5-0.9 0.4-2 0-3.2C65.1 5.9 62.9 3.4 61.7 2.2v0 0c-2.1-1.9-4.2-2.5-5.6-2.1-0.7 0.2-1.2 0.6-1.4 1.3-0.2 0.6-0.2 1.5 0.1 2.4C55.3 5.2 55.1 6.2 54.7 6.7 54.4 6.9 54.1 7 53.8 7 53.5 6.9 53.1 6.7 52.8 6.3 51.9 5.2 51.2 4.6 50.6 4.2 50 3.9 49.4 3.9 49 4.2 48.1 4.7 47.5 6.2 46.8 7.7 46.6 8.1 46 8.5 45.3 8.5 44.6 8.6 43.9 8.5 43.5 8.1 42.8 7.2 42.1 6.9 41.5 6.9 40.9 6.8 40.3 7.1 39.8 7.7 38.9 8.8 38.3 10.8 38 13l-1.4 9h-0.2l-6.6-0.3-1.3-8.4 8.3 0.2 0.5-1.7-8.9 0.7C27.9 10.5 27.3 8.7 26.4 7.7 25.9 7.1 25.4 6.8 24.8 6.9 24.1 6.9 23.5 7.2 22.7 8.1 22.4 8.5 21.6 8.6 20.9 8.5 20.3 8.5 19.7 8.1 19.5 7.7 18.8 6.2 18.2 4.7 17.3 4.2 16.8 3.9 16.3 3.9 15.7 4.2 15.1 4.6 14.4 5.2 13.5 6.3 13.2 6.7 12.8 6.9 12.5 7 12.2 7 11.9 6.9 11.6 6.7 11.2 6.2 10.9 5.2 11.4 3.8 11.8 2.8 11.8 2 11.6 1.4 11.3 0.7 10.8 0.3 10.2 0.1 9.9 0 9.6 0 9.3 0ZM57.2 1.4c0.2 0 0.3 0 0.5 0 1.5 0.2 3.3 1.1 4.3 2.1 1.6 1.7 2.4 3.9 2.4 5.7 0 0.9-0.2 1.7-0.6 2.2-0.4 0.6-1 0.9-1.8 0.9-6.3 0.1-21.7-0.5-21.7-0.5l-1.1 0c0.4-1.5 0.8-2.5 1.4-3.1 0.3-0.4 0.7-0.6 1.1-0.6 0.4 0 0.8 0.1 1.3 0.5 0.8 0.6 1.6 1.1 2.4 1.2 0.4 0 0.7-0.1 1.1-0.4 0.3-0.3 0.6-0.8 0.8-1.6 0.3-1.1 1.1-2 2-2.4 0.4-0.2 0.9-0.2 1.4 0 0.5 0.2 1 0.6 1.5 1.3 0.5 0.7 1 1.2 1.4 1.5 0.5 0.3 0.9 0.3 1.3 0.1 0.3-0.2 0.6-0.7 0.7-1.5 0.1-0.7 0.1-1.8-0.2-3.1-0.2-1 0.1-1.5 0.5-1.9 0.3-0.3 0.7-0.4 1.2-0.4zm-17.8 15.1-0.9 3.9 2.1 9.2 0 0.1-3.5 15.7H20.3l5.7 2.6 39.1-2.6h-8.8l-3.5-15.7 1-7 1.1-0.1 0.3-1.9-1.5 0.2-0.3 1.4-10.9-0.6 0.4 2 10.5-0.9-4.7 22.6h-4.3l-3.1-15.3 7.7 0.6 0.3-2.1-8.1 1 0-0.1zm-8 0.3a0.7 0.7 0 0 0-0.8 0.8 0.7 0.7 0 0 0 0.8 0.7 0.7 0.7 0 0 0 0.7-0.7 0.7 0.7 0 0 0-0.7-0.8zm3.5 0.3a0.7 0.7 0 0 0-0.8 0.7 0.7 0.7 0 0 0 0.8 0.7 0.7 0.7 0 0 0 0.7-0.7 0.7 0.7 0 0 0-0.7-0.7zm17.7 14.3 1.9 14h-3.8zm-11.7 0.2 1.7 13.9h-3.5z" fill="#fff"/></svg>