<svg height="24" width="24" viewBox="0 0 24 24">
<path class="facebook" fill="#4867aa" d="m9.562 8.7493h-2.438v3.2507h2.438v9.752h4.0633v-9.752h2.9597l0.29093-3.2507h-3.2507v-1.3547c0-0.7761 0.15603-1.0833 0.90612-1.0833h2.3445v-4.0633h-3.0946c-2.9224 0-4.2194 1.2865-4.2194 3.7505v2.7509z"/>
<path class="gplus" fill="#db4437" fill-rule="evenodd" clip-rule="evenodd" d="m7 11v2.4h3.97c-0.16 1.029-1.2 3.02-3.97 3.02-2.39 0-4.34-1.979-4.34-4.42 0-2.44 1.95-4.42 4.34-4.42 1.36 0 2.27 0.58 2.79 1.08l1.9-1.83c-1.22-1.14-2.8-1.83-4.69-1.83-3.87 0-7 3.13-7 7s3.13 7 7 7c4.04 0 6.721-2.84 6.721-6.84 0-0.46-0.051-0.81-0.111-1.16h-6.61zl17 2h-3v3h-2v-3h-3v-2h3v-3h2v3h3v2z"/>
<path class="twitter" d="m24 4.557c-0.883 0.392-1.832 0.656-2.828 0.775 1.017-0.609 1.798-1.574 2.165-2.724-0.951 0.564-2.005 0.974-3.127 1.195-0.897-0.957-2.178-1.555-3.594-1.555-3.179 0-5.515 2.966-4.797 6.045-4.091-0.205-7.719-2.165-10.148-5.144-1.29 2.213-0.669 5.108 1.523 6.574-0.806-0.026-1.566-0.247-2.229-0.616-0.054 2.281 1.581 4.415 3.949 4.89-0.693 0.188-1.452 0.232-2.224 0.084 0.626 1.956 2.444 3.379 4.6 3.419-2.07 1.623-4.678 2.348-7.29 2.04 2.179 1.397 4.768 2.212 7.548 2.212 9.142 0 14.307-7.721 13.995-14.646 0.962-0.695 1.797-1.562 2.457-2.549z" fill="#1da1f2"/>
<path class="linkedin" d="m4.98 3c0 1.381-1.11 2.5-2.48 2.5s-2.48-1.119-2.48-2.5c0-1.38 1.11-2.5 2.48-2.5s2.48 1.12 2.48 2.5zm0.02 4.5h-5v16h5v-16zm7.982 0h-4.968v16h4.969v-8.399c0-4.67 6.029-5.052 6.029 0v8.399h4.988v-10.131c0-7.88-8.922-7.593-11.018-3.714v-2.155z" fill="#0078b5"/>
<path class="instagram" d="m12 2.163c3.204 0 3.584 0.012 4.85 0.07 3.252 0.148 4.771 1.691 4.919 4.919 0.058 1.265 0.069 1.645 0.069 4.849 0 3.205-0.012 3.584-0.069 4.849-0.149 3.225-1.664 4.771-4.919 4.919-1.266 0.058-1.644 0.07-4.85 0.07-3.204 0-3.584-0.012-4.849-0.07-3.26-0.149-4.771-1.699-4.919-4.92-0.058-1.265-0.07-1.644-0.07-4.849 0-3.204 0.013-3.583 0.07-4.849 0.149-3.227 1.664-4.771 4.919-4.919 1.266-0.057 1.645-0.069 4.849-0.069zm0-2.163c-3.259 0-3.667 0.014-4.947 0.072-4.358 0.2-6.78 2.618-6.98 6.98-0.059 1.281-0.073 1.689-0.073 4.948s0.014 3.668 0.072 4.948c0.2 4.358 2.618 6.78 6.98 6.98 1.281 0.058 1.689 0.072 4.948 0.072s3.668-0.014 4.948-0.072c4.354-0.2 6.782-2.618 6.979-6.98 0.059-1.28 0.073-1.689 0.073-4.948s-0.014-3.667-0.072-4.947c-0.196-4.354-2.617-6.78-6.979-6.98-1.281-0.059-1.69-0.073-4.949-0.073zm0 5.838c-3.403 0-6.162 2.759-6.162 6.162s2.759 6.163 6.162 6.163 6.162-2.759 6.162-6.163c0-3.403-2.759-6.162-6.162-6.162zm0 10.162c-2.209 0-4-1.79-4-4 0-2.209 1.791-4 4-4s4 1.791 4 4c0 2.21-1.791 4-4 4zm6.406-11.845c-0.796 0-1.441 0.645-1.441 1.44s0.645 1.44 1.441 1.44c0.795 0 1.439-0.645 1.439-1.44s-0.644-1.44-1.439-1.44z"/>
<path class="pinterest" d="m12 0c-6.627 0-12 5.372-12 12 0 5.084 3.163 9.426 7.627 11.174-0.105-0.949-0.2-2.405 0.042-3.441 0.218-0.937 1.407-5.965 1.407-5.965s-0.359-0.719-0.359-1.782c0-1.668 0.967-2.914 2.171-2.914 1.023 0 1.518 0.769 1.518 1.69 0 1.029-0.655 2.568-0.994 3.995-0.283 1.194 0.599 2.169 1.777 2.169 2.133 0 3.772-2.249 3.772-5.495 0-2.873-2.064-4.882-5.012-4.882-3.414 0-5.418 2.561-5.418 5.207 0 1.031 0.397 2.138 0.893 2.738 0.098 0.119 0.112 0.224 0.083 0.345l-0.333 1.36c-0.053 0.22-0.174 0.267-0.402 0.161-1.499-0.698-2.436-2.889-2.436-4.649 0-3.785 2.75-7.262 7.929-7.262 4.163 0 7.398 2.967 7.398 6.931 0 4.136-2.607 7.464-6.227 7.464-1.216 0-2.359-0.631-2.75-1.378l-0.748 2.853c-0.271 1.043-1.002 2.35-1.492 3.146 1.124 0.347 2.317 0.535 3.554 0.535 6.627 0 12-5.373 12-12 0-6.628-5.373-12-12-12z" fill-rule="evenodd" clip-rule="evenodd" fill="#bd2125"/>
<path class="tumblr" d="m19.512 17.489-0.096-0.068h-3.274c-0.153 0-0.16-0.467-0.163-0.622v-5.714c0-0.056 0.045-0.101 0.101-0.101h3.82c0.056 0 0.101-0.045 0.101-0.101v-5.766c0-0.055-0.045-0.1-0.101-0.1h-3.803c-0.055 0-0.1-0.045-0.1-0.101v-4.816c0-0.055-0.045-0.1-0.101-0.1h-7.15c-0.489 0-1.053 0.362-1.135 1.034-0.341 2.778-1.882 4.125-4.276 4.925l-0.267 0.089-0.068 0.096v4.74c0 0.056 0.045 0.101 0.1 0.101h2.9v6.156c0 4.66 3.04 6.859 9.008 6.859 2.401 0 5.048-0.855 5.835-1.891l0.157-0.208-1.488-4.412zm0.339 4.258c-0.75 0.721-2.554 1.256-4.028 1.281l-0.165 0.001c-4.849 0-5.682-3.701-5.682-5.889v-7.039c0-0.056-0.045-0.101-0.1-0.101h-2.782c-0.056 0-0.101-0.045-0.101-0.101l-0.024-3.06 0.064-0.092c2.506-0.976 3.905-2.595 4.273-5.593 0.021-0.167 0.158-0.171 0.159-0.171h3.447c0.055 0 0.101 0.045 0.101 0.101v4.816c0 0.056 0.045 0.101 0.1 0.101h3.803c0.056 0 0.101 0.045 0.101 0.1v3.801c0 0.056-0.045 0.101-0.101 0.101h-3.819c-0.056 0-0.097 0.045-0.097 0.101v6.705c0.023 1.438 0.715 2.167 2.065 2.167 0.544 0 1.116-0.126 1.685-0.344 0.053-0.021 0.111 0.007 0.13 0.061l0.995 2.95-0.024 0.104z" fill-rule="evenodd" clip-rule="evenodd" fill="#36465d"/>
<path class="youtube" fill="#cd201f" d="m4.652 0.000125h1.44l0.988 3.702 0.916-3.702h1.454l-1.665 5.505v3.757h-1.431v-3.757l-1.702-5.505zm6.594 2.373c-1.119 0-1.861 0.74-1.861 1.835v3.349c0 1.204 0.629 1.831 1.861 1.831 1.022 0 1.826-0.683 1.826-1.831v-3.349c0-1.069-0.797-1.835-1.826-1.835zm0.531 5.127c0 0.372-0.19 0.646-0.532 0.646-0.351 0-0.554-0.287-0.554-0.646v-3.179c0-0.374 0.172-0.651 0.529-0.651 0.39 0 0.557 0.269 0.557 0.651v3.179zm4.729-5.07v5.186c-0.155 0.194-0.5 0.512-0.747 0.512-0.271 0-0.338-0.186-0.338-0.46v-5.238h-1.27v5.71c0 0.675 0.206 1.22 0.887 1.22 0.384 0 0.918-0.2 1.468-0.853v0.754h1.27v-6.831h-1.27zm2.203 13.858c-0.448 0-0.541 0.315-0.541 0.763v0.659h1.069v-0.66c0.001-0.44-0.092-0.762-0.528-0.762zm-4.703 0.04c-0.084 0.043-0.167 0.109-0.25 0.198v4.055c0.099 0.106 0.194 0.182 0.287 0.229 0.197 0.1 0.485 0.107 0.619-0.067 0.07-0.092 0.105-0.241 0.105-0.449v-3.359c0-0.22-0.043-0.386-0.129-0.5-0.147-0.193-0.42-0.214-0.632-0.107zm4.827-5.195c-2.604-0.177-11.066-0.177-13.666 0-2.814 0.192-3.146 1.892-3.167 6.367 0.021 4.467 0.35 6.175 3.167 6.367 2.6 0.177 11.062 0.177 13.666 0 2.814-0.192 3.146-1.893 3.167-6.367-0.021-4.467-0.35-6.175-3.167-6.367zm-12.324 10.686h-1.363v-7.54h-1.41v-1.28h4.182v1.28h-1.41v7.54zm4.846 0h-1.21v-0.718c-0.223 0.265-0.455 0.467-0.696 0.605-0.652 0.374-1.547 0.365-1.547-0.955v-5.438h1.209v4.988c0 0.262 0.063 0.438 0.322 0.438 0.236 0 0.564-0.303 0.711-0.487v-4.939h1.21v6.506zm4.657-1.348c0 0.805-0.301 1.431-1.106 1.431-0.443 0-0.812-0.162-1.149-0.583v0.5h-1.221v-8.82h1.221v2.84c0.273-0.333 0.644-0.608 1.076-0.608 0.886 0 1.18 0.749 1.18 1.631v3.609zm4.471-1.752h-2.314v1.228c0 0.488 0.042 0.91 0.528 0.91 0.511 0 0.541-0.344 0.541-0.91v-0.452h1.245v0.489c0 1.253-0.538 2.013-1.813 2.013-1.155 0-1.746-0.842-1.746-2.013v-2.921c0-1.129 0.746-1.914 1.837-1.914 1.161 0 1.721 0.738 1.721 1.914v1.656z"/>
</svg>