<svg xmlns="http://www.w3.org/2000/svg" viewBox="0 0 20.08 20"><path d="m5.93 12.17 0.76-0.76 2.09 2.09-0.76 0.76c-0.58 0.58-1.51 0.58-2.09 0-0.58-0.58-0.58-1.51 0-2.09z" class="fill" /><path d="M 0.74,19.67 7.67,12.73 M 16.4,7.37 19.75,4.02 16.4,7.37 12.71,3.69 16.06,0.34 12.71,3.69 18.2,9.4 17.51,10.09 c -0.53,0.53 -1.28,0.69 -1.94,0.5 l -2.24,2.25 c -1.54,1.54 -4.07,1.5 -5.66,-0.1 v 0 C 6.08,11.13 6.03,8.61 7.58,7.06 L 9.86,4.78 C 9.71,4.15 9.89,3.45 10.39,2.95 l 0.69,-0.69 z" class="stroke" /></svg>