<svg xmlns="http://www.w3.org/2000/svg" viewBox="0 0 4.2 4.2"><path d="m3.17 1.15c0.26 0 0.53 0 0.76 0 0 0.68 0 1.37 0 2.05-0.18 0-0.34 0-0.52 0 0 0.21 0 0.45 0 0.66-0.26-0.21-0.55-0.45-0.81-0.66-0.39 0-0.79 0-1.18 0 0.11-0.08 0.21-0.18 0.32-0.26 0.32 0 0.63 0 0.97 0 0.16 0.13 0.32 0.24 0.47 0.37 0-0.13 0-0.24 0-0.37 0.18 0 0.34 0 0.53 0 0-0.52 0-1.02 0-1.55-0.18 0-0.34 0-0.52 0 0-0.08 0-0.18 0-0.26zM0.6 0.89c0 0.52 0 1.02 0 1.55 0.18 0 0.34 0 0.53 0 0 0.13 0 0.24 0 0.37 0.16-0.13 0.32-0.24 0.47-0.37 0.37 0 0.71 0 1.08 0 0-0.52 0-1.02 0-1.55-0.68 0-1.36 0-2.05 0zm-0.26-0.26c0.87 0 1.71 0 2.57 0 0 0.68 0 1.36 0 2.05-0.42 0-0.81 0-1.23 0-0.26 0.21-0.55 0.42-0.81 0.66 0-0.21 0-0.45 0-0.66-0.18 0-0.34 0-0.52 0 0-0.68 0-1.36 0-2.05z" /></svg>