<svg xmlns="http://www.w3.org/2000/svg" viewBox="0 0 12.19 10.55"><g transform="translate(-197.25431,-105.75878)"><path d="m197.5 106v7.23h7.27v-5.2h2.8v-2.03zm7.27 7.23v2.83h4.43v-8.03h-1.63M209.2 114.46" class="stroke"/><path d="m209.2 114.46h-4.43m0-4.82h4.43" class="stroke"/><path d="m197.5 111.67h7.2" class="stroke"/><path d="m200.68 114.86h3.71" class="stroke"/><path d="m201.52 114.82 0.4-1.49M203.6 114.82l-0.4-1.49" class="stroke"/><path d="m203.6 114.82-0.4-1.49" class="stroke"/><ellipse ry="0.41" rx="0.41" cy="115.29" cx="207.01" class="fill"/><ellipse ry="0.41" rx="0.41" cx="202.6" cy="112.46" class="fill"/><ellipse ry="0.2" rx="0.21" cy="108.86" cx="206.4" class="fill"/><path d="m207.21 109.06c-0.11 0-0.21-0.09-0.21-0.2 0-0.11 0.09-0.2 0.21-0.2h0.4c0.11 0 0.21 0.09 0.21 0.2 0 0.11-0.09 0.2-0.21 0.2z" class="fill"/></g></svg>