<svg xmlns="http://www.w3.org/2000/svg" viewBox="0 0 4.2 4.2"><path d="m2.12 2.69c0.18 0 0.37 0.08 0.5 0.21 0 0 0 0 0 0 0.11 0.11 0.16 0.21 0.18 0.32h-1.36c0.03-0.13 0.08-0.24 0.18-0.31 0.13-0.13 0.32-0.21 0.5-0.21zm0-1.1c0.13 0 0.21 0.05 0.29 0.13 0 0 0 0 0 0 0.08 0.08 0.13 0.18 0.13 0.29 0 0.13-0.05 0.21-0.13 0.32-0.08 0.08-0.18 0.13-0.29 0.13-0.13 0-0.21-0.05-0.31-0.13-0.08-0.08-0.13-0.18-0.13-0.31 0-0.13 0.05-0.21 0.13-0.29 0.08-0.08 0.18-0.13 0.32-0.13zm-1.08-0.52h2.18v2.18h-0.13c-0.03-0.13-0.08-0.24-0.16-0.37-0.1-0.16-0.24-0.24-0.39-0.31 0.08-0.05 0.13-0.13 0.18-0.21v0c0.05-0.1 0.08-0.21 0.08-0.31 0-0.18-0.08-0.34-0.21-0.47-0.13-0.13-0.29-0.21-0.47-0.21-0.18 0-0.34 0.08-0.47 0.21-0.13 0.13-0.21 0.29-0.21 0.47 0 0.11 0.03 0.21 0.08 0.32 0 0 0 0 0 0 0.05 0.08 0.13 0.16 0.18 0.21-0.16 0.08-0.29 0.18-0.39 0.32-0.08 0.11-0.13 0.24-0.16 0.37h-0.13zm-0.26-0.26v0.13 2.57h2.7V0.8Z" /></svg>