<svg xmlns="http://www.w3.org/2000/svg" viewBox="0 0 4.2 4.2"><path d="m2.24 0.77c-0.16 0-0.31 0.03-0.5 0.05 0.21 0.16 0.5 0.37 0.63 0.66l-0.37 0.39 0.03-0.13c0.05-0.45-0.31-0.84-0.76-0.87-0.1 0-0.45 0.11-0.45 0.13l0.45 0.47v0.16h-0.18l-0.45-0.42c-0.03 0.05-0.08 0.08-0.1 0.24-0.08 0.32 0.03 0.66 0.32 0.84 0.24 0.13 0.42 0.16 0.63 0.08v0l-0.74 0.76 0.5 0.42 0.68-0.71 0.55 0.58c0.13 0.13 0.34 0.13 0.5-0.03 0.18-0.16 0.13-0.34 0.03-0.45l-0.6-0.6 0.29-0.29 0.13-0.03-0.08 0.18 0.37 0.34c0.24-0.24 0.47-0.47 0.68-0.68l-0.34-0.34-0.18 0.05 0.05-0.21C2.95 0.91 2.66 0.77 2.21 0.77Zm-0.03 0.18c0.29 0.03 0.63 0.08 0.89 0.45l-0.05 0.18 0.24 0.24 0.16-0.08 0.11 0.11-0.37 0.39-0.13-0.1 0.08-0.16-0.24-0.24-0.29 0.11-0.16-0.16 0.24-0.24c-0.08-0.21-0.31-0.42-0.47-0.52zm-1 0.13h0.13c0.34 0.05 0.6 0.39 0.39 0.81l0.11 0.11-0.18 0.21-0.1-0.1c-0.39 0.21-0.76-0.05-0.81-0.39V1.59L1.01 1.88h0.5v-0.47c-0.08-0.13-0.16-0.16-0.29-0.29zm1.08 0.79 0.13 0.13-1.18 1.21-0.16-0.13zm0 0.6 0.6 0.6c0.08 0.08-0.1 0.26-0.21 0.16l-0.58-0.58z" /></svg>