<svg xmlns="http://www.w3.org/2000/svg" viewBox="0 0 4.2 4.2"><path d="m0.66 3.22c0.89 0 1.78 0 2.68 0 0.08-0.42 0.18-0.87 0.26-1.29-0.45 0-0.89 0-1.31 0-0.08 0.08-0.16 0.18-0.26 0.26-0.37 0-0.73 0-1.1 0-0.08 0.34-0.18 0.68-0.26 1.02zm-0.03-0.92c0.03-0.13 0.05-0.26 0.11-0.37 0.39 0 0.79 0 1.21 0 0.08-0.08 0.16-0.18 0.26-0.26 0.37 0 0.76 0 1.13 0 0-0.18 0-0.34 0-0.52-0.5 0-0.97 0-1.47 0-0.1-0.08-0.18-0.18-0.26-0.26-0.31 0-0.66 0-0.97 0 0 0.47 0 0.92 0 1.39zm-0.26 1.18c0-0.94 0-1.89 0-2.84 0.45 0 0.89 0 1.34 0 0.11 0.08 0.18 0.18 0.26 0.26 0.53 0 1.08 0 1.6 0 0 0.26 0 0.53 0 0.76 0.11 0 0.24 0 0.34 0-0.13 0.58-0.24 1.18-0.37 1.76 0 0.08-0.08 0.03-0.13 0.05-1.02 0-2.05 0-3.07 0z" /></svg>