<svg xmlns="http://www.w3.org/2000/svg" viewBox="0 0 14.16 10.58"><g transform="translate(-157.71649,-269.02954)"><path d="m167.07 271.03-0.13 0.3-0.18 0.81-0.67 0.23-0.93-0.68-0.93 0.82 0.57 1-0.31 0.64-1.14 0.17-0.07 1.24 1.11 0.31 0.23 0.67-0.69 0.93 0.82 0.93 1.01-0.57 0.64 0.31 0.17 1.14 1.24 0.07 0.31-1.11 0.67-0.23 0.93 0.68 0.93-0.82-0.57-1 0.31-0.64 1.14-0.17 0.07-1.24-1.11-0.31-0.23-0.67 0.69-0.93-0.82-0.93-1.01 0.57-0.64-0.31-0.17-1.14z" class="stroke"/><path d="m159.95 269.44-0.06 1.05-0.44 0.34-1.03-0.2-0.4 0.98 0.88 0.58 0.08 0.55-0.69 0.79 0.65 0.84 0.94-0.47 0.51 0.21 0.34 0.99 1.05-0.14 0.06-1.05 0.44-0.34 1.03 0.2 0.4-0.98-0.88-0.58-0.08-0.55 0.69-0.79-0.65-0.84-0.94 0.47-0.51-0.21-0.34-0.99-0.31 0.04z" class="stroke"/><path d="m161.83 272.07a0.97 0.96 0 0 1-0.83 1.09 0.97 0.96 0 0 1-1.09-0.82 0.97 0.96 0 0 1 0.83-1.09 0.97 0.96 0 0 1 1.09 0.82zM169.31 275.3" class="stroke"/><path d="m169.31 275.3a1.87 1.86 0.77 0 1-1.97 1.75 1.87 1.86 0.77 0 1-1.75-1.97 1.87 1.86 0.77 0 1 1.97-1.75 1.87 1.86 0.77 0 1 1.75 1.97z" class="stroke"/></g></svg>