<svg xmlns="http://www.w3.org/2000/svg" viewBox="0 0 13.23 13.27"><path d="m9.29 0.66c-1.81 0-3.28 1.5-3.28 3.32 0 0.44 0.19 0.89 0.44 1.41C6.71 5.91 7.04 6.47 7.37 7 8.02 8.04 8.68 8.94 8.68 8.94V8.94L8.68 8.94 9.29 9.77 9.91 8.94 9.91 8.94c0 0 0.65-0.89 1.31-1.94 0.33-0.52 0.66-1.08 0.91-1.6 0.25-0.52 0.44-0.97 0.44-1.41 0-1.83-1.47-3.32-3.28-3.32zm0 0.79c1.37 0 2.48 1.12 2.48 2.53 0 0.15-0.13 0.58-0.36 1.06C11.18 5.52 10.86 6.07 10.54 6.58 9.92 7.57 9.32 8.4 9.29 8.43 9.27 8.4 8.67 7.57 8.04 6.58 7.72 6.07 7.41 5.52 7.17 5.05 6.94 4.57 6.81 4.14 6.81 3.99c0-1.4 1.11-2.53 2.48-2.53zm0 3.39c0.47 0 0.85-0.39 0.85-0.86 0-0.48-0.38-0.86-0.85-0.86-0.47 0-0.85 0.39-0.85 0.86 0 0.48 0.38 0.86 0.85 0.86zM4.01 1.35 3.93 1.38A0.4 0.4 0 0 0 3.81 1.43L0 2.87V13.27l4.01-1.52 3.37 1.28a0.4 0.4 0 0 0 0.22 0.08l0.03 0.01 0.03-0.01a0.4 0.4 0 0 0 0.22-0.08L11.62 11.6V11.32 7.59c-0.3 0.48-0.58 0.88-0.79 1.2V11.05L8.01 12.12V9.14C7.89 8.98 7.62 8.6 7.22 7.99V12.12L4.4 11.05V2.35L5.54 2.78C5.62 2.53 5.73 2.29 5.85 2.05L4.2 1.43A0.4 0.4 0 0 0 4.08 1.38ZM3.61 2.35V11.05L0.79 12.12V3.42Z"/></svg>