<svg xmlns="http://www.w3.org/2000/svg" viewBox="0 0 20 20"><path d="m16.43 3.35c-0.24-0.02-0.51 0.01-0.62 0.03-0.97 0.13-1.57 0.97-1.38 1.93 0.09 0.45 0.3 0.85 0.53 1.25 0.21 0.34 0.42 0.68 0.59 1.04 0.49 1 0.59 2.05 0.29 3.11-0.44 1.5-0.89 2.99-1.35 4.49 0 0.02-0.02 0.05-0.03 0.07-0.04-0.05-0.06-0.11-0.08-0.17C13.36 12.1 12.34 9.1 11.34 6.09 11.24 5.78 11.24 5.78 11.56 5.76 11.79 5.74 12.02 5.73 12.25 5.69 12.47 5.65 12.61 5.5 12.59 5.29 12.57 5.08 12.44 4.97 12.19 4.97 11.62 4.99 11.07 5.02 10.5 5.06 9.52 5.1 8.53 5.04 7.56 4.97H7.41C7.2 4.99 7.07 5.1 7.05 5.31 7.03 5.5 7.15 5.67 7.36 5.69 7.6 5.73 7.87 5.74 8.13 5.76 8.27 5.78 8.34 5.82 8.38 5.93 8.81 7.13 9.25 8.3 9.67 9.5 9.71 9.59 9.69 9.69 9.65 9.78L7.83 15.24C7.81 15.3 7.79 15.37 7.73 15.41 7.66 15.37 7.66 15.28 7.62 15.22 6.6 12.19 5.57 9.14 4.55 6.1 4.46 5.8 4.45 5.8 4.76 5.78 4.97 5.76 5.19 5.74 5.4 5.71 5.67 5.67 5.82 5.52 5.8 5.31 5.78 5.08 5.63 4.97 5.35 4.99 4.63 5.01 3.91 5.1 3.19 5.08H2.67c-0.01 0-0.24 0-0.32 0L1.61 6.06c0.04 0.09 0.24 0.55 0.25 0.56 1.35 3.7 2.71 7.41 4.06 11.11 0.04 0.09 0.09 0.33 0.13 0.42l1.37 0.63c0.03-0.1 0.11-0.36 0.13-0.41 0.61-1.78 1.21-3.54 1.84-5.31 0.23-0.64 0.43-1.29 0.66-1.93 0.02-0.08 0.04-0.17 0.13-0.25 0.09 0.27 0.19 0.49 0.27 0.74 0.82 2.24 1.63 4.45 2.45 6.69 0.02 0.05 0.07 0.22 0.09 0.28l1.5-0.73c0.06-0.18 0.16-0.43 0.18-0.48 0.95-2.71 1.88-5.42 2.82-8.13C17.86 8.17 18.05 7.07 17.91 5.91 17.85 5.48 17.67 4.76 17.65 4.66ZM4.01 16.71c0.1 0.09 0.2 0.19 0.31 0.28-0.01 0-0.01-0.01-0.02-0.02-0.1-0.08-0.19-0.17-0.29-0.26z" class="fill"/><circle cx="10" cy="10" r="9.5" class="stroke"/></svg>