<svg xmlns="http://www.w3.org/2000/svg" viewBox="0 0 4.2 4.2"><path d="M1.02 1.94 2.07 2.3 3.09 1.96V2.49C3.06 2.62 2.88 2.65 2.75 2.7 2.33 2.81 1.88 2.81 1.46 2.73 1.3 2.68 1.13 2.67 1.02 2.54ZM2.07 1.22 3.28 1.61 2.07 2 0.86 1.61ZM2.07 0.96 0.07 1.62 0.28 1.7V2.83C0.2 2.88 0.15 2.97 0.15 3.07 0.15 3.21 0.27 3.33 0.41 3.33 0.55 3.33 0.67 3.21 0.67 3.07 0.66 2.98 0.61 2.9 0.54 2.86V1.79l0.26 0.08V2.29C0.8 2.42 0.79 2.65 0.83 2.71 0.96 2.92 1.22 2.97 1.43 3.03 1.9 3.11 2.4 3.11 2.87 3 3.05 2.95 3.32 2.84 3.37 2.63V1.86l0.74-0.24z"/></svg>